HIERARCHY
ROOT Hips
{
	OFFSET 0.000000 97.167313 0.000000
	CHANNELS 6 Xposition Yposition Zposition Xrotation Yrotation Zrotation
	JOINT Spine
	{
		OFFSET 0.000000 13.784798 0.064400
		CHANNELS 3 Xrotation Yrotation Zrotation
		JOINT Spine1
		{
			OFFSET 0.000000 12.037903 0.404700
			CHANNELS 3 Xrotation Yrotation Zrotation
			JOINT Spine2
			{
				OFFSET 0.000000 17.795601 0.420200
				CHANNELS 3 Xrotation Yrotation Zrotation
				JOINT Neck
				{
					OFFSET 0.000000 39.131302 11.954600
					CHANNELS 3 Xrotation Yrotation Zrotation
					JOINT Head
					{
						OFFSET 0.000000 14.456192 15.627699
						CHANNELS 3 Xrotation Yrotation Zrotation
						JOINT HeadTop_End
						{
							OFFSET 0.000000 15.703506 7.603401
							CHANNELS 3 Xrotation Yrotation Zrotation
							End Site
							{
								OFFSET 0.000000 17.447403 0.000000
							}
						}
					}
				}
				JOINT LeftShoulder
				{
					OFFSET 17.399500 24.608795 1.168800
					CHANNELS 3 Xrotation Yrotation Zrotation
					JOINT LeftArm
					{
						OFFSET 18.980635 5.765305 1.818600
						CHANNELS 3 Xrotation Yrotation Zrotation
						JOINT LeftForeArm
						{
							OFFSET 49.290169 0.000000 0.000000
							CHANNELS 3 Xrotation Yrotation Zrotation
							JOINT LeftHand
							{
								OFFSET 31.562012 0.000000 0.000000
								CHANNELS 3 Xrotation Yrotation Zrotation
								JOINT LeftHandThumb1
								{
									OFFSET 6.133995 -4.388519 7.076070
									CHANNELS 3 Xrotation Yrotation Zrotation
									JOINT LeftHandThumb2
									{
										OFFSET 6.037666 -3.485840 3.485847
										CHANNELS 3 Xrotation Yrotation Zrotation
										JOINT LeftHandThumb3
										{
											OFFSET 6.496506 -3.750763 3.750761
											CHANNELS 3 Xrotation Yrotation Zrotation
											JOINT LeftHandThumb4
											{
												OFFSET 5.616882 -3.242905 3.242910
												CHANNELS 3 Xrotation Yrotation Zrotation
												End Site
												{
													OFFSET -1.254608 7.132141 0.375429
												}
											}
										}
									}
								}
								JOINT LeftHandPinky1
								{
									OFFSET 18.920792 -0.453171 -11.426712
									CHANNELS 3 Xrotation Yrotation Zrotation
									JOINT LeftHandPinky2
									{
										OFFSET 4.919586 0.000000 0.000000
										CHANNELS 3 Xrotation Yrotation Zrotation
										JOINT LeftHandPinky3
										{
											OFFSET 5.233047 0.000000 0.000000
											CHANNELS 3 Xrotation Yrotation Zrotation
											JOINT LeftHandPinky4
											{
												OFFSET 5.571716 0.000000 0.000000
												CHANNELS 3 Xrotation Yrotation Zrotation
												End Site
												{
													OFFSET -3.459808 4.342407 -0.466164
												}
											}
										}
									}
								}
								JOINT LeftHandRing1
								{
									OFFSET 22.726120 -0.094986 -6.500475
									CHANNELS 3 Xrotation Yrotation Zrotation
									JOINT LeftHandRing2
									{
										OFFSET 6.408615 0.000000 0.000000
										CHANNELS 3 Xrotation Yrotation Zrotation
										JOINT LeftHandRing3
										{
											OFFSET 6.150223 0.000000 0.000000
											CHANNELS 3 Xrotation Yrotation Zrotation
											JOINT LeftHandRing4
											{
												OFFSET 6.145386 0.000000 0.000000
												CHANNELS 3 Xrotation Yrotation Zrotation
												End Site
												{
													OFFSET -3.671402 4.923981 -0.202372
												}
											}
										}
									}
								}
								JOINT LeftHandMiddle1
								{
									OFFSET 23.373947 0.000000 0.000001
									CHANNELS 3 Xrotation Yrotation Zrotation
									JOINT LeftHandMiddle2
									{
										OFFSET 6.996567 0.000000 0.000000
										CHANNELS 3 Xrotation Yrotation Zrotation
										JOINT LeftHandMiddle3
										{
											OFFSET 7.015945 0.000000 0.000000
											CHANNELS 3 Xrotation Yrotation Zrotation
											JOINT LeftHandMiddle4
											{
												OFFSET 7.721573 0.000000 0.000000
												CHANNELS 3 Xrotation Yrotation Zrotation
												End Site
												{
													OFFSET -4.651108 6.158463 0.251582
												}
											}
										}
									}
								}
								JOINT LeftHandIndex1
								{
									OFFSET 21.310577 -0.490082 6.209344
									CHANNELS 3 Xrotation Yrotation Zrotation
									JOINT LeftHandIndex2
									{
										OFFSET 7.536453 0.000000 0.000000
										CHANNELS 3 Xrotation Yrotation Zrotation
										JOINT LeftHandIndex3
										{
											OFFSET 7.512344 0.000000 0.000000
											CHANNELS 3 Xrotation Yrotation Zrotation
											JOINT LeftHandIndex4
											{
												OFFSET 10.212402 0.000000 0.000001
												CHANNELS 3 Xrotation Yrotation Zrotation
												End Site
												{
													OFFSET -5.180801 8.690506 1.388433
												}
											}
										}
									}
								}
							}
						}
					}
				}
				JOINT RightShoulder
				{
					OFFSET -17.399500 24.608795 1.168800
					CHANNELS 3 Xrotation Yrotation Zrotation
					JOINT RightArm
					{
						OFFSET -18.980635 5.765305 1.818600
						CHANNELS 3 Xrotation Yrotation Zrotation
						JOINT RightForeArm
						{
							OFFSET -49.290169 0.000000 0.000000
							CHANNELS 3 Xrotation Yrotation Zrotation
							JOINT RightHand
							{
								OFFSET -31.562012 0.000000 0.000000
								CHANNELS 3 Xrotation Yrotation Zrotation
								JOINT RightHandThumb1
								{
									OFFSET -6.133995 -4.388519 7.076070
									CHANNELS 3 Xrotation Yrotation Zrotation
									JOINT RightHandThumb2
									{
										OFFSET -6.037666 -3.485840 3.485847
										CHANNELS 3 Xrotation Yrotation Zrotation
										JOINT RightHandThumb3
										{
											OFFSET -6.496506 -3.750763 3.750761
											CHANNELS 3 Xrotation Yrotation Zrotation
											JOINT RightHandThumb4
											{
												OFFSET -5.616882 -3.242905 3.242910
												CHANNELS 3 Xrotation Yrotation Zrotation
												End Site
												{
													OFFSET 1.254608 7.132141 0.375429
												}
											}
										}
									}
								}
								JOINT RightHandIndex1
								{
									OFFSET -21.310577 -0.490082 6.209344
									CHANNELS 3 Xrotation Yrotation Zrotation
									JOINT RightHandIndex2
									{
										OFFSET -7.536453 0.000000 0.000000
										CHANNELS 3 Xrotation Yrotation Zrotation
										JOINT RightHandIndex3
										{
											OFFSET -7.512344 0.000000 0.000000
											CHANNELS 3 Xrotation Yrotation Zrotation
											JOINT RightHandIndex4
											{
												OFFSET -10.212402 0.000000 0.000001
												CHANNELS 3 Xrotation Yrotation Zrotation
												End Site
												{
													OFFSET 5.180801 8.690506 1.388433
												}
											}
										}
									}
								}
								JOINT RightHandMiddle1
								{
									OFFSET -23.373947 0.000000 0.000001
									CHANNELS 3 Xrotation Yrotation Zrotation
									JOINT RightHandMiddle2
									{
										OFFSET -6.996567 0.000000 0.000000
										CHANNELS 3 Xrotation Yrotation Zrotation
										JOINT RightHandMiddle3
										{
											OFFSET -7.015945 0.000000 0.000000
											CHANNELS 3 Xrotation Yrotation Zrotation
											JOINT RightHandMiddle4
											{
												OFFSET -7.721573 0.000000 0.000000
												CHANNELS 3 Xrotation Yrotation Zrotation
												End Site
												{
													OFFSET 4.651108 6.158463 0.251582
												}
											}
										}
									}
								}
								JOINT RightHandRing1
								{
									OFFSET -22.726120 -0.094986 -6.500475
									CHANNELS 3 Xrotation Yrotation Zrotation
									JOINT RightHandRing2
									{
										OFFSET -6.408615 0.000000 0.000000
										CHANNELS 3 Xrotation Yrotation Zrotation
										JOINT RightHandRing3
										{
											OFFSET -6.150223 0.000000 0.000000
											CHANNELS 3 Xrotation Yrotation Zrotation
											JOINT RightHandRing4
											{
												OFFSET -6.145386 0.000000 0.000000
												CHANNELS 3 Xrotation Yrotation Zrotation
												End Site
												{
													OFFSET 3.671402 4.923981 -0.202372
												}
											}
										}
									}
								}
								JOINT RightHandPinky1
								{
									OFFSET -18.920792 -0.453171 -11.426712
									CHANNELS 3 Xrotation Yrotation Zrotation
									JOINT RightHandPinky2
									{
										OFFSET -4.919586 0.000000 0.000000
										CHANNELS 3 Xrotation Yrotation Zrotation
										JOINT RightHandPinky3
										{
											OFFSET -5.233047 0.000000 0.000000
											CHANNELS 3 Xrotation Yrotation Zrotation
											JOINT RightHandPinky4
											{
												OFFSET -5.571716 0.000000 0.000000
												CHANNELS 3 Xrotation Yrotation Zrotation
												End Site
												{
													OFFSET 3.459808 4.342407 -0.466164
												}
											}
										}
									}
								}
							}
						}
					}
				}
			}
		}
	}
	JOINT LeftUpLeg
	{
		OFFSET 19.899099 -7.885101 -3.429500
		CHANNELS 3 Xrotation Yrotation Zrotation
		JOINT LeftLeg
		{
			OFFSET 1.745560 -36.997807 10.304700
			CHANNELS 3 Xrotation Yrotation Zrotation
			JOINT LeftFoot
			{
				OFFSET -1.745558 -29.803308 -13.615400
				CHANNELS 3 Xrotation Yrotation Zrotation
				JOINT LeftToeBase
				{
					OFFSET 1.181900 -18.539904 15.226099
					CHANNELS 3 Xrotation Yrotation Zrotation
					JOINT LeftToe_End
					{
						OFFSET -0.863701 1.402801 16.534700
						CHANNELS 3 Xrotation Yrotation Zrotation
						End Site
						{
							OFFSET 0.000000 16.616566 0.000000
						}
					}
				}
			}
		}
	}
	JOINT RightUpLeg
	{
		OFFSET -19.899099 -7.885101 -3.429500
		CHANNELS 3 Xrotation Yrotation Zrotation
		JOINT RightLeg
		{
			OFFSET -1.745560 -36.997807 10.304700
			CHANNELS 3 Xrotation Yrotation Zrotation
			JOINT RightFoot
			{
				OFFSET 1.745558 -29.803308 -13.615400
				CHANNELS 3 Xrotation Yrotation Zrotation
				JOINT RightToeBase
				{
					OFFSET -1.181900 -18.539904 15.226099
					CHANNELS 3 Xrotation Yrotation Zrotation
					JOINT RightToe_End
					{
						OFFSET 0.863701 1.402801 16.534700
						CHANNELS 3 Xrotation Yrotation Zrotation
						End Site
						{
							OFFSET 0.000000 16.616566 0.000000
						}
					}
				}
			}
		}
	}
}
MOTION
Frames: 5
Frame Time: 0.033333
22.795267 44.999222 -4.988731 33.837526 -35.880561 -24.870349 7.950923 -2.720955 -8.652029 3.105397 -0.796468 -2.156626 3.101914 -0.793384 -2.162664 -3.176155 -2.690090 -0.851088 -50.732958 -16.614640 4.344604 0.000000 0.000001 -0.000001 0.519810 -2.630748 -4.342587 -14.265724 -34.608275 -3.222270 0.000006 -16.545129 -0.000009 10.451373 -4.955978 43.606660 -3.411098 7.311791 11.594365 -12.303872 19.691027 7.108285 4.090308 19.573978 7.432490 0.000000 0.000001 0.000000 0.753425 8.586230 -4.723771 0.242476 -2.235297 -15.769239 0.198000 1.642566 -13.745954 0.000001 0.000000 -0.000006 0.275126 2.486272 -7.673755 0.285961 1.967436 -16.537937 0.068412 0.970222 -8.067009 -0.000002 0.000002 0.000003 -0.018581 0.269885 -6.997374 0.270290 1.913878 -16.075151 0.017226 0.487785 -4.045374 -0.000000 -0.000000 0.000004 -0.257344 -3.834617 -3.892952 0.266845 1.901907 -15.971648 0.013194 0.426881 -3.539796 -0.000003 0.000001 -0.000001 7.064387 1.283038 6.448241 -57.588822 22.610931 22.913726 0.000010 34.407317 -0.000010 -72.533044 7.426831 -7.649295 -10.335185 -0.135980 -21.386386 16.952104 2.558863 26.007928 3.571081 -15.645762 -5.629682 0.000002 0.000000 0.000002 -2.745369 10.506854 14.472664 0.353565 -2.193031 18.314133 0.183040 -1.587993 13.149054 -0.000001 -0.000003 -0.000001 0.345422 -4.489782 4.462605 0.673317 -2.989838 25.377501 0.140535 -1.393688 11.515638 -0.000003 0.000004 -0.000004 4.519988 -16.539428 15.474944 0.707503 -3.060779 26.025092 0.135760 -1.369983 11.317348 -0.000002 0.000002 -0.000005 15.169575 -24.633366 33.661682 0.641684 -2.922297 24.763939 0.433846 -2.421981 20.308295 -0.000002 0.000000 0.000004 -65.646041 6.201990 21.558667 132.579409 9.925813 5.475237 -38.177083 3.299052 -5.587769 -80.082021 -5.633254 5.581836 -0.000000 -0.000001 0.000000 -8.436512 -7.292587 -6.550932 46.981849 0.199665 4.708592 2.886496 -0.613463 32.492532 -28.987077 -1.849503 13.021116 -0.000000 0.000002 -0.000000 
21.727070 45.360325 -2.784515 35.071191 -27.376836 -23.509723 5.901404 -1.255772 -9.212410 2.351431 -0.410409 -2.490885 2.350037 -0.400001 -2.494002 -2.107725 1.614815 0.177393 -62.514618 7.575644 -7.565690 0.000000 0.000002 -0.000005 0.195830 -5.292798 -9.844540 -21.128342 -45.972521 -8.070304 0.000000 -16.566909 -0.000007 9.737644 -10.737039 19.206709 -0.116901 10.572545 6.462529 -7.185923 20.088095 10.186228 4.246053 17.376373 5.909002 0.000000 0.000003 -0.000002 0.631030 4.000632 -10.477175 0.402360 -1.741049 -20.068827 0.414101 2.356047 -19.933940 0.000000 0.000000 -0.000002 0.089570 1.156851 -12.360939 0.690584 3.010393 -25.834924 0.134410 1.356563 -11.316483 -0.000004 -0.000001 0.000005 0.137155 1.370216 -11.480596 0.667743 2.962859 -25.396610 0.139211 1.380291 -11.517247 -0.000001 0.000001 0.000006 0.041564 0.795820 -8.653148 0.341552 2.145667 -18.087075 0.181283 1.572630 -13.149682 -0.000000 0.000001 0.000001 5.157490 0.200798 9.385306 -56.553314 11.526023 21.273473 0.000014 45.964919 -0.000002 -59.528835 4.934857 -15.994502 -10.335180 -0.135992 -21.386376 16.799506 2.411901 25.941520 3.571082 -15.645756 -5.629678 -0.000001 -0.000003 0.000001 -2.717352 10.494930 14.357266 0.350935 -2.185135 18.245778 0.183034 -1.588003 13.149071 -0.000002 -0.000003 -0.000001 0.342528 -4.478887 4.433971 0.662278 -2.966486 25.164913 0.032213 -1.388190 11.294753 -0.000000 -0.000000 -0.000006 4.448596 -16.480299 15.277364 0.692097 -3.029072 25.735161 -0.081065 -1.392931 11.152715 -0.000005 0.000002 -0.000005 14.896183 -24.586290 33.175960 0.628405 -2.893394 24.502286 0.424184 -2.395736 20.078412 0.000001 0.000002 0.000004 -74.004212 -2.856293 17.843598 127.857043 6.904845 4.353826 -18.081906 0.155927 -4.420010 -81.758669 -6.364997 5.534420 -0.000000 -0.000000 0.000000 -6.591072 -9.106020 -9.065584 51.713965 -2.953398 5.149127 3.265442 -0.521644 27.936105 -24.527862 -0.288345 4.477980 -0.000000 -0.000001 0.000004 
22.358232 45.992508 1.063534 37.276338 -15.399969 -24.488638 4.036888 0.801376 -8.947167 1.656145 0.175893 -2.462376 1.656393 0.199692 -2.460889 -1.356376 6.426298 20.129744 -57.421469 39.808012 -38.339809 -0.000000 -0.000001 -0.000001 -0.030517 -8.634598 -12.628091 -32.442261 -53.413985 -26.055041 0.000013 -20.191646 0.000019 6.643168 -16.373997 -7.125242 0.658715 11.651455 4.468014 -3.731379 19.995558 11.570702 3.683650 16.456929 5.203848 -0.000002 -0.000001 -0.000003 0.494932 2.727036 -15.435606 0.576188 -1.310797 -23.909965 0.594454 2.803416 -23.939152 0.000000 0.000000 -0.000006 0.016140 1.069346 -16.769241 1.008620 3.592870 -31.352348 0.225220 1.750038 -14.665548 -0.000001 0.000001 0.000002 0.303961 2.036468 -15.484263 1.010648 3.596206 -31.384866 0.259231 1.875161 -15.741011 0.000001 0.000001 0.000004 0.445864 2.721165 -12.899139 0.462329 2.484922 -21.075951 0.369086 2.228125 -18.808318 -0.000001 0.000005 0.000000 2.235555 -3.757423 7.614653 -47.516059 -4.302274 13.941387 -0.000010 54.770587 0.000018 -56.682227 1.637579 -18.815143 -10.335186 -0.135988 -21.386383 16.366573 1.999874 25.752810 3.571085 -15.645759 -5.629683 -0.000001 0.000001 0.000002 -2.638794 10.460886 14.031862 0.343623 -2.162826 18.053052 0.183037 -1.588014 13.149124 -0.000002 -0.000001 0.000001 0.334434 -4.448160 4.353179 0.631591 -2.900361 24.565402 -0.273564 -1.368315 10.672118 -0.000001 -0.000002 -0.000009 4.249426 -16.311994 14.720834 0.649537 -2.939240 24.917565 -0.693501 -1.451082 10.688388 -0.000001 -0.000001 -0.000005 14.132501 -24.439424 31.808123 0.591686 -2.811531 23.764439 0.397507 -2.321516 19.430235 -0.000001 -0.000001 0.000004 -72.724186 -6.402636 5.680199 121.793256 8.607486 5.960011 -12.640261 -0.209579 -2.855707 -82.953597 -5.317871 4.259303 0.000001 0.000000 0.000000 3.143391 -11.072135 -5.976645 50.708281 -9.131490 8.069315 -6.980847 -13.028818 21.786314 -22.008517 0.000021 -0.000018 0.000001 0.000002 0.000000 
22.962029 46.300308 5.040607 39.685916 -3.752865 -27.012638 2.110867 2.245131 -8.911353 0.932377 0.635237 -2.481420 0.928706 0.662835 -2.476295 -6.255532 8.039138 21.673003 -40.926473 53.690201 -37.856597 0.000003 0.000000 -0.000001 0.224300 -9.165630 -11.742674 -38.907056 -54.523874 -46.898777 0.000003 -27.814721 -0.000002 2.869390 -18.048164 -28.749724 0.349300 11.950475 3.663438 -0.466405 19.587171 12.486998 2.685681 15.986563 4.733103 0.000000 -0.000000 0.000000 0.560596 2.742932 -20.947285 0.806272 -0.840731 -28.243406 0.789324 3.206068 -27.655887 0.000001 0.000004 -0.000005 0.081858 1.535884 -21.862361 1.326386 4.067765 -36.106596 0.364214 2.213786 -18.682642 -0.000003 0.000001 0.000002 0.508657 2.615183 -20.003517 1.383843 4.145220 -36.909113 0.385020 2.274295 -19.213623 -0.000001 0.000001 0.000009 0.847294 3.721724 -17.684186 0.649025 2.923145 -25.031914 0.580388 2.771541 -23.649988 -0.000001 0.000002 -0.000003 -0.190189 -5.615913 4.342239 -38.894519 -19.228830 7.841271 -0.000008 60.222147 0.000026 -54.739943 -3.089626 -23.503016 -10.335205 -0.135982 -21.386384 15.688010 1.368593 25.456253 3.571086 -15.645754 -5.629675 -0.000002 -0.000002 0.000001 -2.518374 10.407105 13.527691 0.332439 -2.128245 17.754331 0.183035 -1.588004 13.149212 -0.000003 -0.000003 0.000001 0.321999 -4.400478 4.227995 0.585424 -2.797285 23.636402 -0.748095 -1.324791 9.708229 0.000004 -0.000001 -0.000006 3.947161 -16.046785 13.860556 0.586133 -2.798872 23.650712 -1.645251 -1.522062 9.968933 -0.000000 -0.000002 -0.000007 12.971778 -24.171440 29.695217 0.536871 -2.683751 22.621141 0.357842 -2.205933 18.425788 -0.000000 0.000003 0.000003 -65.081171 -8.798978 -5.237311 118.741746 11.116064 8.430535 -19.251745 -0.855192 1.271796 -77.617361 -4.687520 6.094308 -0.000000 -0.000002 0.000000 12.278328 -8.946123 2.606357 39.709241 -11.067084 8.967698 -20.287185 -30.104062 5.198562 -22.370828 -0.000013 0.000002 0.000003 -0.000001 -0.000001 
23.033360 46.112289 9.059338 42.690014 5.823644 -30.636561 0.675006 2.260387 -9.245476 0.324406 0.673816 -2.743399 0.319269 0.690030 -2.740276 1.538425 9.599405 13.432790 -65.798429 51.109971 -2.338179 0.000000 0.000000 0.000002 0.447889 -7.024412 -9.858893 -28.215829 -58.853165 -49.411497 -0.000010 -47.164249 -0.000038 0.812390 -13.900908 -40.208470 -0.675115 11.706798 3.700658 2.430192 18.966831 13.078546 1.464453 15.850579 4.451297 0.000001 0.000001 -0.000002 0.956142 3.544409 -26.477129 1.073493 -0.385824 -32.613200 0.982457 3.549688 -30.932516 0.000001 0.000000 -0.000002 0.330951 2.309543 -27.076309 1.617834 4.438847 -40.034782 0.543601 2.686115 -22.877471 0.000000 0.000001 0.000002 0.726281 3.092166 -24.564774 1.753413 4.594894 -41.756088 0.501145 2.583296 -21.953920 0.000001 -0.000001 0.000009 1.113029 4.053786 -22.499050 0.887884 3.387194 -29.369578 0.787579 3.202702 -27.624278 -0.000003 0.000003 0.000000 -2.973818 -9.657088 3.337450 -37.290466 -19.670036 5.869516 0.000020 61.440386 -0.000006 -48.482640 -18.220518 -37.084396 -10.335178 -0.135994 -21.386374 14.796823 0.565647 25.065403 3.571083 -15.645756 -5.629680 0.000001 0.000000 0.000002 -2.365080 10.335661 12.876012 0.318249 -2.083410 17.368106 0.183047 -1.588055 13.149337 -0.000004 -0.000001 0.000001 0.306230 -4.338797 4.066161 0.528219 -2.662895 22.435408 -1.362253 -1.245506 8.464069 -0.000001 0.000004 -0.000001 3.568059 -15.696171 12.752091 0.508764 -2.615330 22.013029 -2.879947 -1.579359 9.039784 0.000003 -0.000002 -0.000002 11.515962 -23.754433 26.978404 0.469814 -2.516955 21.143132 0.309548 -2.055415 17.127234 -0.000001 -0.000001 -0.000003 -62.563570 -13.392757 -8.722994 115.996201 8.341856 8.724202 -18.039476 -1.487187 5.381317 -78.016880 -5.133247 6.126579 -0.000001 -0.000000 -0.000000 17.165413 -7.619104 8.026122 21.438027 -11.124161 5.014377 -24.993762 -29.267186 -8.442682 -22.293459 0.000012 0.000002 -0.000000 -0.000000 0.000001 
